<svg xmlns="http://www.w3.org/2000/svg" xmlns:xlink="http://www.w3.org/1999/xlink" width="971" zoomAndPan="magnify" viewBox="0 0 728.25 310.499991" height="414" preserveAspectRatio="xMidYMid meet" version="1.2"><defs><clipPath id="1fc6976bf1"><path d="M 0.210938 0 L 554 0 L 554 309.90625 L 0.210938 309.90625 Z M 0.210938 0 "/></clipPath><clipPath id="486cb9a54f"><path d="M 9.945312 0 L 543.894531 0 C 546.476562 0 548.953125 1.027344 550.777344 2.851562 C 552.601562 4.675781 553.628906 7.152344 553.628906 9.734375 L 553.628906 300.171875 C 553.628906 302.753906 552.601562 305.230469 550.777344 307.054688 C 548.953125 308.878906 546.476562 309.90625 543.894531 309.90625 L 9.945312 309.90625 C 7.363281 309.90625 4.886719 308.878906 3.0625 307.054688 C 1.238281 305.230469 0.210938 302.753906 0.210938 300.171875 L 0.210938 9.734375 C 0.210938 7.152344 1.238281 4.675781 3.0625 2.851562 C 4.886719 1.027344 7.363281 0 9.945312 0 Z M 9.945312 0 "/></clipPath><clipPath id="1021cd0341"><path d="M 66.433594 88.839844 L 487.636719 88.839844 L 487.636719 250.742188 L 66.433594 250.742188 Z M 66.433594 88.839844 "/></clipPath><clipPath id="b246458371"><path d="M 72.421875 88.839844 L 481.289062 88.839844 C 484.597656 88.839844 487.28125 91.523438 487.28125 94.828125 L 487.28125 244.753906 C 487.28125 248.0625 484.597656 250.742188 481.289062 250.742188 L 72.421875 250.742188 C 69.117188 250.742188 66.433594 248.0625 66.433594 244.753906 L 66.433594 94.828125 C 66.433594 91.523438 69.117188 88.839844 72.421875 88.839844 Z M 72.421875 88.839844 "/></clipPath><clipPath id="33cc80a71f"><path d="M 68.46875 111.0625 L 485.625 111.0625 L 485.625 248.503906 L 68.46875 248.503906 Z M 68.46875 111.0625 "/></clipPath><clipPath id="4e49b71184"><path d="M 72.960938 111.0625 L 480.902344 111.0625 C 483.382812 111.0625 485.394531 113.074219 485.394531 115.554688 L 485.394531 244.011719 C 485.394531 246.492188 483.382812 248.503906 480.902344 248.503906 L 72.960938 248.503906 C 70.480469 248.503906 68.46875 246.492188 68.46875 244.011719 L 68.46875 115.554688 C 68.46875 113.074219 70.480469 111.0625 72.960938 111.0625 Z M 72.960938 111.0625 "/></clipPath><clipPath id="881221688c"><path d="M 465 95 L 477 95 L 477 106 L 465 106 Z M 465 95 "/></clipPath><clipPath id="db7ff6c3d8"><path d="M 471.035156 91.320312 L 480.035156 100.324219 L 471.035156 109.324219 L 462.035156 100.324219 Z M 471.035156 91.320312 "/></clipPath><clipPath id="fffa8c01b0"><path d="M 471.035156 91.320312 L 480.035156 100.324219 L 471.035156 109.324219 L 462.035156 100.324219 Z M 471.035156 91.320312 "/></clipPath><clipPath id="ba2ba11b68"><path d="M 66.558594 59.164062 L 487.460938 59.164062 L 487.460938 82.847656 L 66.558594 82.847656 Z M 66.558594 59.164062 "/></clipPath><clipPath id="49e44ca53b"><path d="M 72.550781 59.164062 L 481.414062 59.164062 C 484.722656 59.164062 487.40625 61.84375 487.40625 65.152344 L 487.40625 76.859375 C 487.40625 80.167969 484.722656 82.847656 481.414062 82.847656 L 72.550781 82.847656 C 69.242188 82.847656 66.558594 80.167969 66.558594 76.859375 L 66.558594 65.152344 C 66.558594 61.84375 69.242188 59.164062 72.550781 59.164062 Z M 72.550781 59.164062 "/></clipPath><clipPath id="7ddf6dd921"><path d="M 464 69 L 478 69 L 478 73 L 464 73 Z M 464 69 "/></clipPath><clipPath id="d6f1d26bc6"><path d="M 464.507812 64.796875 L 477.230469 64.476562 L 477.550781 77.203125 L 464.828125 77.523438 Z M 464.507812 64.796875 "/></clipPath><clipPath id="316a7a59f0"><path d="M 464.507812 64.796875 L 477.230469 64.476562 L 477.550781 77.203125 L 464.828125 77.523438 Z M 464.507812 64.796875 "/></clipPath><clipPath id="dbb1afecdd"><path d="M 469 64 L 473 64 L 473 78 L 469 78 Z M 469 64 "/></clipPath><clipPath id="6cce0da5f1"><path d="M 464.507812 64.796875 L 477.230469 64.476562 L 477.550781 77.203125 L 464.828125 77.523438 Z M 464.507812 64.796875 "/></clipPath><clipPath id="a82874fca4"><path d="M 464.507812 64.796875 L 477.230469 64.476562 L 477.550781 77.203125 L 464.828125 77.523438 Z M 464.507812 64.796875 "/></clipPath><clipPath id="4f19843280"><path d="M 235 157.988281 L 318.804688 157.988281 L 318.804688 220.886719 L 235 220.886719 Z M 235 157.988281 "/></clipPath><clipPath id="703fea44ad"><path d="M 273 183 L 318.804688 183 L 318.804688 210 L 273 210 Z M 273 183 "/></clipPath><clipPath id="2ef571cd02"><path d="M 235 187.710938 L 289.636719 187.710938 L 289.636719 220.550781 L 235 220.550781 Z M 235 187.710938 "/></clipPath><clipPath id="9c94bf21b9"><path d="M 587.917969 219.585938 L 727 219.585938 L 727 309.90625 L 587.917969 309.90625 Z M 587.917969 219.585938 "/></clipPath><clipPath id="7bf4546338"><path d="M 593.90625 219.585938 L 721.039062 219.585938 C 724.347656 219.585938 727.027344 222.269531 727.027344 225.578125 L 727.027344 303.914062 C 727.027344 307.222656 724.347656 309.90625 721.039062 309.90625 L 593.90625 309.90625 C 590.597656 309.90625 587.917969 307.222656 587.917969 303.914062 L 587.917969 225.578125 C 587.917969 222.269531 590.597656 219.585938 593.90625 219.585938 Z M 593.90625 219.585938 "/></clipPath></defs><g id="7abba1a571"><g clip-rule="nonzero" clip-path="url(#1fc6976bf1)"><g clip-rule="nonzero" clip-path="url(#486cb9a54f)"><path style=" stroke:none;fill-rule:nonzero;fill:#f1f5f8;fill-opacity:1;" d="M 0.210938 0 L 553.441406 0 L 553.441406 309.90625 L 0.210938 309.90625 Z M 0.210938 0 "/></g></g><g clip-rule="nonzero" clip-path="url(#1021cd0341)"><g clip-rule="nonzero" clip-path="url(#b246458371)"><path style=" stroke:none;fill-rule:nonzero;fill:#ffaa05;fill-opacity:1;" d="M 66.433594 88.839844 L 487.003906 88.839844 L 487.003906 250.742188 L 66.433594 250.742188 Z M 66.433594 88.839844 "/></g></g><path style="fill:none;stroke-width:10;stroke-linecap:round;stroke-linejoin:miter;stroke:#ffffff;stroke-opacity:1;stroke-miterlimit:4;" d="M 4.998904 5.000201 L 209.510006 5.000201 " transform="matrix(0.748794,-0.000000000000002414,0.000000000000002414,0.748794,73.565444,96.58791)"/><path style="fill:none;stroke-width:10;stroke-linecap:round;stroke-linejoin:miter;stroke:#ffffff;stroke-opacity:1;stroke-miterlimit:4;" d="M 5.002315 4.999601 L 106.233652 4.999601 " transform="matrix(0.747321,0,0,0.747321,241.851506,96.58791)"/><g clip-rule="nonzero" clip-path="url(#33cc80a71f)"><g clip-rule="nonzero" clip-path="url(#4e49b71184)"><path style=" stroke:none;fill-rule:nonzero;fill:#ffffff;fill-opacity:1;" d="M 68.46875 111.0625 L 485.625 111.0625 L 485.625 248.503906 L 68.46875 248.503906 Z M 68.46875 111.0625 "/></g></g><g clip-rule="nonzero" clip-path="url(#881221688c)"><g clip-rule="nonzero" clip-path="url(#db7ff6c3d8)"><g clip-rule="nonzero" clip-path="url(#fffa8c01b0)"><path style=" stroke:none;fill-rule:nonzero;fill:#ffffff;fill-opacity:1;" d="M 474.1875 105.273438 L 466.085938 97.171875 C 465.816406 96.902344 465.816406 96.542969 466.085938 96.273438 L 466.984375 95.371094 C 467.253906 95.101562 467.617188 95.101562 467.886719 95.371094 L 475.988281 103.472656 C 476.257812 103.742188 476.257812 104.101562 475.988281 104.375 L 475.085938 105.273438 C 474.816406 105.542969 474.457031 105.542969 474.1875 105.273438 Z M 474.1875 105.273438 "/><path style=" stroke:none;fill-rule:nonzero;fill:#ffffff;fill-opacity:1;" d="M 466.085938 103.472656 L 474.1875 95.371094 C 474.457031 95.101562 474.816406 95.101562 475.085938 95.371094 L 475.988281 96.273438 C 476.257812 96.542969 476.257812 96.902344 475.988281 97.171875 L 467.886719 105.273438 C 467.617188 105.542969 467.253906 105.542969 466.984375 105.273438 L 466.085938 104.375 C 465.816406 104.101562 465.816406 103.742188 466.085938 103.472656 Z M 466.085938 103.472656 "/></g></g></g><g clip-rule="nonzero" clip-path="url(#ba2ba11b68)"><g clip-rule="nonzero" clip-path="url(#49e44ca53b)"><path style=" stroke:none;fill-rule:nonzero;fill:#ffaa05;fill-opacity:1;" d="M 66.558594 59.164062 L 487.367188 59.164062 L 487.367188 82.847656 L 66.558594 82.847656 Z M 66.558594 59.164062 "/></g></g><g clip-rule="nonzero" clip-path="url(#7ddf6dd921)"><g clip-rule="nonzero" clip-path="url(#d6f1d26bc6)"><g clip-rule="nonzero" clip-path="url(#316a7a59f0)"><path style=" stroke:none;fill-rule:nonzero;fill:#ffffff;fill-opacity:1;" d="M 476.789062 72.128906 L 465.335938 72.414062 C 464.953125 72.425781 464.691406 72.175781 464.683594 71.796875 L 464.652344 70.523438 C 464.640625 70.140625 464.890625 69.878906 465.269531 69.871094 L 476.722656 69.582031 C 477.105469 69.574219 477.367188 69.820312 477.375 70.203125 L 477.410156 71.476562 C 477.417969 71.855469 477.171875 72.117188 476.789062 72.128906 Z M 476.789062 72.128906 "/></g></g></g><g clip-rule="nonzero" clip-path="url(#dbb1afecdd)"><g clip-rule="nonzero" clip-path="url(#6cce0da5f1)"><g clip-rule="nonzero" clip-path="url(#a82874fca4)"><path style=" stroke:none;fill-rule:nonzero;fill:#ffffff;fill-opacity:1;" d="M 469.902344 76.757812 L 469.613281 65.304688 C 469.605469 64.921875 469.851562 64.664062 470.234375 64.652344 L 471.507812 64.621094 C 471.886719 64.609375 472.148438 64.859375 472.160156 65.242188 L 472.445312 76.695312 C 472.457031 77.074219 472.207031 77.335938 471.824219 77.347656 L 470.554688 77.378906 C 470.171875 77.386719 469.910156 77.140625 469.902344 76.757812 Z M 469.902344 76.757812 "/></g></g></g><path style="fill:none;stroke-width:10;stroke-linecap:round;stroke-linejoin:miter;stroke:#ffffff;stroke-opacity:1;stroke-miterlimit:4;" d="M 4.998904 5.002519 L 245.792298 5.002519 " transform="matrix(0.748794,0,0,0.748794,73.565444,67.261956)"/><path style="fill:none;stroke-width:10;stroke-linecap:round;stroke-linejoin:miter;stroke:#bac1c9;stroke-opacity:1;stroke-miterlimit:4;" d="M 5.002238 4.999678 L 440.309562 4.999678 " transform="matrix(0.748295,0,0,0.748295,73.565444,119.051735)"/><path style="fill:none;stroke-width:10;stroke-linecap:round;stroke-linejoin:miter;stroke:#bac1c9;stroke-opacity:1;stroke-miterlimit:4;" d="M 4.998464 5.001261 L 485.479454 5.001261 " transform="matrix(0.748079,0.000000000000000347,-0.000000000000000347,0.748079,73.565444,138.520383)"/><path style="fill:none;stroke-width:10;stroke-linecap:round;stroke-linejoin:miter;stroke:#bac1c9;stroke-opacity:1;stroke-miterlimit:4;" d="M 4.998904 5.000992 L 410.630239 5.000992 " transform="matrix(0.748794,0,0,0.748794,73.565444,232.53263)"/><g clip-rule="nonzero" clip-path="url(#4f19843280)"><path style=" stroke:none;fill-rule:nonzero;fill:#bac1c9;fill-opacity:1;" d="M 238.332031 160.285156 C 237.757812 160.285156 237.292969 160.75 237.292969 161.324219 L 237.292969 217.21875 C 237.292969 217.789062 237.757812 218.257812 238.332031 218.257812 L 315.261719 218.257812 C 315.832031 218.257812 316.296875 217.789062 316.296875 217.21875 L 316.296875 161.324219 C 316.296875 160.75 315.832031 160.285156 315.261719 160.285156 Z M 315.261719 220.550781 L 238.332031 220.550781 C 236.492188 220.550781 235 219.054688 235 217.21875 L 235 161.324219 C 235 159.484375 236.492188 157.988281 238.332031 157.988281 L 315.261719 157.988281 C 317.097656 157.988281 318.59375 159.484375 318.59375 161.324219 L 318.59375 217.21875 C 318.59375 219.054688 317.097656 220.550781 315.261719 220.550781 "/></g><g clip-rule="nonzero" clip-path="url(#703fea44ad)"><path style=" stroke:none;fill-rule:nonzero;fill:#bac1c9;fill-opacity:1;" d="M 317.445312 209.308594 C 317.148438 209.308594 316.847656 209.191406 316.625 208.960938 L 294.695312 186.464844 L 275.449219 206.207031 C 275.007812 206.660156 274.28125 206.667969 273.828125 206.226562 C 273.375 205.785156 273.363281 205.058594 273.808594 204.605469 L 293.871094 184.019531 C 294.089844 183.800781 294.386719 183.675781 294.695312 183.675781 C 295.003906 183.675781 295.300781 183.800781 295.515625 184.019531 L 318.265625 207.359375 C 318.710938 207.816406 318.699219 208.542969 318.246094 208.984375 C 318.023438 209.199219 317.734375 209.308594 317.445312 209.308594 "/></g><g clip-rule="nonzero" clip-path="url(#2ef571cd02)"><path style=" stroke:none;fill-rule:nonzero;fill:#bac1c9;fill-opacity:1;" d="M 288.457031 220.550781 C 288.160156 220.550781 287.867188 220.4375 287.640625 220.210938 L 273.8125 206.210938 L 258.296875 190.503906 L 236.96875 212.382812 C 236.523438 212.839844 235.800781 212.847656 235.34375 212.40625 C 234.890625 211.964844 234.882812 211.238281 235.324219 210.78125 L 257.46875 188.066406 C 257.683594 187.84375 257.980469 187.71875 258.285156 187.71875 C 258.289062 187.71875 258.289062 187.71875 258.292969 187.71875 C 258.597656 187.71875 258.890625 187.839844 259.105469 188.058594 L 275.445312 204.597656 L 289.273438 218.597656 C 289.71875 219.046875 289.714844 219.773438 289.261719 220.21875 C 289.039062 220.441406 288.75 220.550781 288.457031 220.550781 "/></g><path style=" stroke:none;fill-rule:nonzero;fill:#bac1c9;fill-opacity:1;" d="M 269.917969 170.414062 C 266.949219 170.414062 264.535156 172.832031 264.535156 175.800781 C 264.535156 178.769531 266.949219 181.183594 269.917969 181.183594 C 272.890625 181.183594 275.304688 178.769531 275.304688 175.800781 C 275.304688 172.832031 272.890625 170.414062 269.917969 170.414062 Z M 269.917969 183.480469 C 265.683594 183.480469 262.238281 180.035156 262.238281 175.800781 C 262.238281 171.566406 265.683594 168.121094 269.917969 168.121094 C 274.15625 168.121094 277.601562 171.566406 277.601562 175.800781 C 277.601562 180.035156 274.15625 183.480469 269.917969 183.480469 "/><path style="fill:none;stroke-width:4;stroke-linecap:butt;stroke-linejoin:miter;stroke:#001020;stroke-opacity:1;stroke-miterlimit:4;" d="M 417.415837 33.212088 L 11.107346 33.212088 C 8.689652 33.212088 6.376393 32.251887 4.668863 30.541366 C 2.961334 28.836093 2.000522 26.522167 2.000522 24.103302 L 2.000522 14.999763 " transform="matrix(0.748065,0,0,0.744474,275.358948,250.74323)"/><path style="fill-rule:nonzero;fill:#001020;fill-opacity:1;stroke-width:4;stroke-linecap:round;stroke-linejoin:round;stroke:#001020;stroke-opacity:1;stroke-miterlimit:4;" d="M 2.000522 1.997706 C 5.311145 1.997706 8.000374 4.684168 8.000374 8.00027 C 8.000374 11.311124 5.311145 13.997587 2.000522 13.997587 C -1.315323 13.997587 -3.99933 11.311124 -3.99933 8.00027 C -3.99933 4.684168 -1.315323 1.997706 2.000522 1.997706 " transform="matrix(0.748065,0,0,0.744474,275.358948,250.74323)"/><g clip-rule="nonzero" clip-path="url(#9c94bf21b9)"><g clip-rule="nonzero" clip-path="url(#7bf4546338)"><path style=" stroke:none;fill-rule:nonzero;fill:#f1f5f8;fill-opacity:1;" d="M 587.917969 219.585938 L 726.921875 219.585938 L 726.921875 309.90625 L 587.917969 309.90625 Z M 587.917969 219.585938 "/></g></g><g style="fill:#000000;fill-opacity:1;"><g transform="translate(598.36493, 248.647718)"><path style="stroke:none" d="M 1.359375 -3.765625 L 1.359375 -5.96875 L 8.21875 -9.640625 L 8.21875 -7.4375 L 3.484375 -4.9375 L 3.484375 -4.8125 L 8.21875 -2.296875 L 8.21875 -0.09375 Z M 1.359375 -3.765625 "/></g></g><g style="fill:#000000;fill-opacity:1;"><g transform="translate(607.94719, 248.647718)"><path style="stroke:none" d="M 6.953125 0 L 6.25 -2.6875 L 3.1875 -2.6875 L 2.5 0 L 0.078125 0 L 3.09375 -11.140625 L 6.484375 -11.140625 L 9.5 0 Z M 4.796875 -8.828125 L 4.65625 -8.828125 L 3.578125 -4.609375 L 5.875 -4.609375 Z M 4.796875 -8.828125 "/></g></g><g style="fill:#000000;fill-opacity:1;"><g transform="translate(617.529449, 248.647718)"><path style="stroke:none" d="M 5.125 0.1875 C 4.476562 0.1875 3.894531 0.0859375 3.375 -0.109375 C 2.863281 -0.304688 2.425781 -0.585938 2.0625 -0.953125 C 1.707031 -1.328125 1.429688 -1.78125 1.234375 -2.3125 C 1.046875 -2.84375 0.953125 -3.445312 0.953125 -4.125 C 0.953125 -4.789062 1.046875 -5.390625 1.234375 -5.921875 C 1.429688 -6.453125 1.707031 -6.90625 2.0625 -7.28125 C 2.425781 -7.65625 2.863281 -7.941406 3.375 -8.140625 C 3.894531 -8.335938 4.472656 -8.4375 5.109375 -8.4375 C 6.015625 -8.4375 6.738281 -8.25 7.28125 -7.875 C 7.832031 -7.507812 8.253906 -7.023438 8.546875 -6.421875 L 6.71875 -5.421875 C 6.570312 -5.742188 6.378906 -6.007812 6.140625 -6.21875 C 5.898438 -6.4375 5.554688 -6.546875 5.109375 -6.546875 C 4.566406 -6.546875 4.148438 -6.390625 3.859375 -6.078125 C 3.566406 -5.765625 3.421875 -5.335938 3.421875 -4.796875 L 3.421875 -3.453125 C 3.421875 -2.910156 3.566406 -2.476562 3.859375 -2.15625 C 4.148438 -1.84375 4.578125 -1.6875 5.140625 -1.6875 C 5.597656 -1.6875 5.957031 -1.789062 6.21875 -2 C 6.476562 -2.21875 6.695312 -2.5 6.875 -2.84375 L 8.671875 -1.828125 C 8.367188 -1.210938 7.929688 -0.722656 7.359375 -0.359375 C 6.796875 0.00390625 6.050781 0.1875 5.125 0.1875 Z M 5.125 0.1875 "/></g></g><g style="fill:#000000;fill-opacity:1;"><g transform="translate(627.111709, 248.647718)"><path style="stroke:none" d="M 5.125 0.1875 C 4.476562 0.1875 3.894531 0.0859375 3.375 -0.109375 C 2.863281 -0.304688 2.425781 -0.585938 2.0625 -0.953125 C 1.707031 -1.328125 1.429688 -1.78125 1.234375 -2.3125 C 1.046875 -2.84375 0.953125 -3.445312 0.953125 -4.125 C 0.953125 -4.789062 1.046875 -5.390625 1.234375 -5.921875 C 1.429688 -6.453125 1.707031 -6.90625 2.0625 -7.28125 C 2.425781 -7.65625 2.863281 -7.941406 3.375 -8.140625 C 3.894531 -8.335938 4.472656 -8.4375 5.109375 -8.4375 C 6.015625 -8.4375 6.738281 -8.25 7.28125 -7.875 C 7.832031 -7.507812 8.253906 -7.023438 8.546875 -6.421875 L 6.71875 -5.421875 C 6.570312 -5.742188 6.378906 -6.007812 6.140625 -6.21875 C 5.898438 -6.4375 5.554688 -6.546875 5.109375 -6.546875 C 4.566406 -6.546875 4.148438 -6.390625 3.859375 -6.078125 C 3.566406 -5.765625 3.421875 -5.335938 3.421875 -4.796875 L 3.421875 -3.453125 C 3.421875 -2.910156 3.566406 -2.476562 3.859375 -2.15625 C 4.148438 -1.84375 4.578125 -1.6875 5.140625 -1.6875 C 5.597656 -1.6875 5.957031 -1.789062 6.21875 -2 C 6.476562 -2.21875 6.695312 -2.5 6.875 -2.84375 L 8.671875 -1.828125 C 8.367188 -1.210938 7.929688 -0.722656 7.359375 -0.359375 C 6.796875 0.00390625 6.050781 0.1875 5.125 0.1875 Z M 5.125 0.1875 "/></g></g><g style="fill:#000000;fill-opacity:1;"><g transform="translate(636.693968, 248.647718)"><path style="stroke:none" d="M 4.796875 0.1875 C 4.148438 0.1875 3.570312 0.0859375 3.0625 -0.109375 C 2.550781 -0.304688 2.117188 -0.585938 1.765625 -0.953125 C 1.410156 -1.328125 1.132812 -1.78125 0.9375 -2.3125 C 0.75 -2.84375 0.65625 -3.445312 0.65625 -4.125 C 0.65625 -4.789062 0.75 -5.390625 0.9375 -5.921875 C 1.132812 -6.453125 1.410156 -6.90625 1.765625 -7.28125 C 2.117188 -7.65625 2.550781 -7.941406 3.0625 -8.140625 C 3.570312 -8.335938 4.148438 -8.4375 4.796875 -8.4375 C 5.429688 -8.4375 6.003906 -8.335938 6.515625 -8.140625 C 7.023438 -7.941406 7.457031 -7.65625 7.8125 -7.28125 C 8.175781 -6.90625 8.453125 -6.453125 8.640625 -5.921875 C 8.828125 -5.390625 8.921875 -4.789062 8.921875 -4.125 C 8.921875 -3.445312 8.828125 -2.84375 8.640625 -2.3125 C 8.453125 -1.78125 8.175781 -1.328125 7.8125 -0.953125 C 7.457031 -0.585938 7.023438 -0.304688 6.515625 -0.109375 C 6.003906 0.0859375 5.429688 0.1875 4.796875 0.1875 Z M 4.796875 -1.5625 C 5.328125 -1.5625 5.738281 -1.726562 6.03125 -2.0625 C 6.332031 -2.394531 6.484375 -2.863281 6.484375 -3.46875 L 6.484375 -4.78125 C 6.484375 -5.382812 6.332031 -5.847656 6.03125 -6.171875 C 5.738281 -6.503906 5.328125 -6.671875 4.796875 -6.671875 C 4.265625 -6.671875 3.847656 -6.503906 3.546875 -6.171875 C 3.242188 -5.847656 3.09375 -5.382812 3.09375 -4.78125 L 3.09375 -3.46875 C 3.09375 -2.863281 3.242188 -2.394531 3.546875 -2.0625 C 3.847656 -1.726562 4.265625 -1.5625 4.796875 -1.5625 Z M 4.796875 -1.5625 "/></g></g><g style="fill:#000000;fill-opacity:1;"><g transform="translate(646.276228, 248.647718)"><path style="stroke:none" d="M 1.1875 -1.84375 L 3.078125 -1.84375 L 3.078125 -6.40625 L 1.1875 -6.40625 L 1.1875 -8.234375 L 5.453125 -8.234375 L 5.453125 -5.90625 L 5.5625 -5.90625 C 5.632812 -6.207031 5.734375 -6.5 5.859375 -6.78125 C 5.992188 -7.0625 6.164062 -7.3125 6.375 -7.53125 C 6.582031 -7.75 6.832031 -7.921875 7.125 -8.046875 C 7.425781 -8.171875 7.78125 -8.234375 8.1875 -8.234375 L 8.96875 -8.234375 L 8.96875 -6.0625 L 7.21875 -6.0625 C 6.632812 -6.0625 6.191406 -5.890625 5.890625 -5.546875 C 5.597656 -5.203125 5.453125 -4.78125 5.453125 -4.28125 L 5.453125 -1.84375 L 8.15625 -1.84375 L 8.15625 0 L 1.1875 0 Z M 1.1875 -1.84375 "/></g></g><g style="fill:#000000;fill-opacity:1;"><g transform="translate(655.858488, 248.647718)"><path style="stroke:none" d="M 6.28125 -1.5 L 6.15625 -1.5 C 5.945312 -1 5.648438 -0.59375 5.265625 -0.28125 C 4.890625 0.03125 4.375 0.1875 3.71875 0.1875 C 3.257812 0.1875 2.84375 0.101562 2.46875 -0.0625 C 2.09375 -0.226562 1.765625 -0.488281 1.484375 -0.84375 C 1.210938 -1.195312 1 -1.644531 0.84375 -2.1875 C 0.695312 -2.726562 0.625 -3.375 0.625 -4.125 C 0.625 -4.863281 0.695312 -5.503906 0.84375 -6.046875 C 1 -6.585938 1.210938 -7.035156 1.484375 -7.390625 C 1.765625 -7.742188 2.09375 -8.003906 2.46875 -8.171875 C 2.84375 -8.347656 3.257812 -8.4375 3.71875 -8.4375 C 4.050781 -8.4375 4.34375 -8.390625 4.59375 -8.296875 C 4.851562 -8.210938 5.082031 -8.097656 5.28125 -7.953125 C 5.476562 -7.804688 5.644531 -7.628906 5.78125 -7.421875 C 5.925781 -7.210938 6.050781 -6.984375 6.15625 -6.734375 L 6.28125 -6.734375 L 6.28125 -11.8125 L 8.640625 -11.8125 L 8.640625 0 L 6.28125 0 Z M 4.75 -1.640625 C 5.15625 -1.640625 5.507812 -1.738281 5.8125 -1.9375 C 6.125 -2.144531 6.28125 -2.46875 6.28125 -2.90625 L 6.28125 -5.328125 C 6.28125 -5.765625 6.125 -6.082031 5.8125 -6.28125 C 5.507812 -6.488281 5.15625 -6.59375 4.75 -6.59375 C 4.207031 -6.59375 3.789062 -6.429688 3.5 -6.109375 C 3.21875 -5.785156 3.078125 -5.335938 3.078125 -4.765625 L 3.078125 -3.484375 C 3.078125 -2.910156 3.21875 -2.457031 3.5 -2.125 C 3.789062 -1.800781 4.207031 -1.640625 4.75 -1.640625 Z M 4.75 -1.640625 "/></g></g><g style="fill:#000000;fill-opacity:1;"><g transform="translate(665.440747, 248.647718)"><path style="stroke:none" d="M 5.296875 -9.296875 C 4.765625 -9.296875 4.394531 -9.40625 4.1875 -9.625 C 3.976562 -9.84375 3.875 -10.101562 3.875 -10.40625 L 3.875 -10.875 C 3.875 -11.195312 3.976562 -11.460938 4.1875 -11.671875 C 4.394531 -11.890625 4.765625 -12 5.296875 -12 C 5.828125 -12 6.195312 -11.890625 6.40625 -11.671875 C 6.613281 -11.460938 6.71875 -11.195312 6.71875 -10.875 L 6.71875 -10.40625 C 6.71875 -10.101562 6.613281 -9.84375 6.40625 -9.625 C 6.195312 -9.40625 5.828125 -9.296875 5.296875 -9.296875 Z M 1.5 -1.84375 L 4.125 -1.84375 L 4.125 -6.40625 L 1.5 -6.40625 L 1.5 -8.234375 L 6.484375 -8.234375 L 6.484375 -1.84375 L 8.90625 -1.84375 L 8.90625 0 L 1.5 0 Z M 1.5 -1.84375 "/></g></g><g style="fill:#000000;fill-opacity:1;"><g transform="translate(675.023007, 248.647718)"><path style="stroke:none" d="M 4.796875 0.1875 C 4.148438 0.1875 3.570312 0.0859375 3.0625 -0.109375 C 2.550781 -0.304688 2.117188 -0.585938 1.765625 -0.953125 C 1.410156 -1.328125 1.132812 -1.78125 0.9375 -2.3125 C 0.75 -2.84375 0.65625 -3.445312 0.65625 -4.125 C 0.65625 -4.789062 0.75 -5.390625 0.9375 -5.921875 C 1.132812 -6.453125 1.410156 -6.90625 1.765625 -7.28125 C 2.117188 -7.65625 2.550781 -7.941406 3.0625 -8.140625 C 3.570312 -8.335938 4.148438 -8.4375 4.796875 -8.4375 C 5.429688 -8.4375 6.003906 -8.335938 6.515625 -8.140625 C 7.023438 -7.941406 7.457031 -7.65625 7.8125 -7.28125 C 8.175781 -6.90625 8.453125 -6.453125 8.640625 -5.921875 C 8.828125 -5.390625 8.921875 -4.789062 8.921875 -4.125 C 8.921875 -3.445312 8.828125 -2.84375 8.640625 -2.3125 C 8.453125 -1.78125 8.175781 -1.328125 7.8125 -0.953125 C 7.457031 -0.585938 7.023438 -0.304688 6.515625 -0.109375 C 6.003906 0.0859375 5.429688 0.1875 4.796875 0.1875 Z M 4.796875 -1.5625 C 5.328125 -1.5625 5.738281 -1.726562 6.03125 -2.0625 C 6.332031 -2.394531 6.484375 -2.863281 6.484375 -3.46875 L 6.484375 -4.78125 C 6.484375 -5.382812 6.332031 -5.847656 6.03125 -6.171875 C 5.738281 -6.503906 5.328125 -6.671875 4.796875 -6.671875 C 4.265625 -6.671875 3.847656 -6.503906 3.546875 -6.171875 C 3.242188 -5.847656 3.09375 -5.382812 3.09375 -4.78125 L 3.09375 -3.46875 C 3.09375 -2.863281 3.242188 -2.394531 3.546875 -2.0625 C 3.847656 -1.726562 4.265625 -1.5625 4.796875 -1.5625 Z M 4.796875 -1.5625 "/></g></g><g style="fill:#000000;fill-opacity:1;"><g transform="translate(684.605266, 248.647718)"><path style="stroke:none" d="M 1.03125 0 L 1.03125 -8.234375 L 3.40625 -8.234375 L 3.40625 -6.734375 L 3.5 -6.734375 C 3.59375 -6.972656 3.707031 -7.191406 3.84375 -7.390625 C 3.988281 -7.597656 4.15625 -7.773438 4.34375 -7.921875 C 4.539062 -8.078125 4.769531 -8.203125 5.03125 -8.296875 C 5.289062 -8.390625 5.585938 -8.4375 5.921875 -8.4375 C 6.316406 -8.4375 6.675781 -8.367188 7 -8.234375 C 7.332031 -8.097656 7.613281 -7.894531 7.84375 -7.625 C 8.082031 -7.363281 8.269531 -7.039062 8.40625 -6.65625 C 8.539062 -6.269531 8.609375 -5.828125 8.609375 -5.328125 L 8.609375 0 L 6.25 0 L 6.25 -5.015625 C 6.25 -6.078125 5.785156 -6.609375 4.859375 -6.609375 C 4.671875 -6.609375 4.488281 -6.582031 4.3125 -6.53125 C 4.144531 -6.488281 3.988281 -6.414062 3.84375 -6.3125 C 3.707031 -6.207031 3.597656 -6.082031 3.515625 -5.9375 C 3.441406 -5.789062 3.40625 -5.613281 3.40625 -5.40625 L 3.40625 0 Z M 1.03125 0 "/></g></g><g style="fill:#000000;fill-opacity:1;"><g transform="translate(694.187526, 248.647718)"><path style="stroke:none" d="M 1.359375 -2.296875 L 6.09375 -4.8125 L 6.09375 -4.9375 L 1.359375 -7.4375 L 1.359375 -9.640625 L 8.21875 -5.96875 L 8.21875 -3.765625 L 1.359375 -0.09375 Z M 1.359375 -2.296875 "/></g></g><g style="fill:#000000;fill-opacity:1;"><g transform="translate(598.36493, 270.362749)"><path style="stroke:none" d=""/></g></g><g style="fill:#000000;fill-opacity:1;"><g transform="translate(607.94719, 270.362749)"><path style="stroke:none" d=""/></g></g><g style="fill:#727d87;fill-opacity:1;"><g transform="translate(617.541081, 270.362749)"><path style="stroke:none" d="M 4.796875 0.1875 C 4.191406 0.1875 3.757812 0.0546875 3.5 -0.203125 C 3.238281 -0.460938 3.109375 -0.773438 3.109375 -1.140625 L 3.109375 -1.6875 C 3.109375 -2.050781 3.238281 -2.363281 3.5 -2.625 C 3.757812 -2.882812 4.191406 -3.015625 4.796875 -3.015625 C 5.390625 -3.015625 5.816406 -2.882812 6.078125 -2.625 C 6.335938 -2.363281 6.46875 -2.050781 6.46875 -1.6875 L 6.46875 -1.140625 C 6.46875 -0.773438 6.335938 -0.460938 6.078125 -0.203125 C 5.816406 0.0546875 5.390625 0.1875 4.796875 0.1875 Z M 4.796875 0.1875 "/></g></g><g style="fill:#727d87;fill-opacity:1;"><g transform="translate(627.12334, 270.362749)"><path style="stroke:none" d="M 4.796875 0.1875 C 4.191406 0.1875 3.757812 0.0546875 3.5 -0.203125 C 3.238281 -0.460938 3.109375 -0.773438 3.109375 -1.140625 L 3.109375 -1.6875 C 3.109375 -2.050781 3.238281 -2.363281 3.5 -2.625 C 3.757812 -2.882812 4.191406 -3.015625 4.796875 -3.015625 C 5.390625 -3.015625 5.816406 -2.882812 6.078125 -2.625 C 6.335938 -2.363281 6.46875 -2.050781 6.46875 -1.6875 L 6.46875 -1.140625 C 6.46875 -0.773438 6.335938 -0.460938 6.078125 -0.203125 C 5.816406 0.0546875 5.390625 0.1875 4.796875 0.1875 Z M 4.796875 0.1875 "/></g></g><g style="fill:#727d87;fill-opacity:1;"><g transform="translate(636.7056, 270.362749)"><path style="stroke:none" d="M 4.796875 0.1875 C 4.191406 0.1875 3.757812 0.0546875 3.5 -0.203125 C 3.238281 -0.460938 3.109375 -0.773438 3.109375 -1.140625 L 3.109375 -1.6875 C 3.109375 -2.050781 3.238281 -2.363281 3.5 -2.625 C 3.757812 -2.882812 4.191406 -3.015625 4.796875 -3.015625 C 5.390625 -3.015625 5.816406 -2.882812 6.078125 -2.625 C 6.335938 -2.363281 6.46875 -2.050781 6.46875 -1.6875 L 6.46875 -1.140625 C 6.46875 -0.773438 6.335938 -0.460938 6.078125 -0.203125 C 5.816406 0.0546875 5.390625 0.1875 4.796875 0.1875 Z M 4.796875 0.1875 "/></g></g><g style="fill:#000000;fill-opacity:1;"><g transform="translate(598.36493, 292.077779)"><path style="stroke:none" d="M 1.359375 -3.765625 L 1.359375 -5.96875 L 8.21875 -9.640625 L 8.21875 -7.4375 L 3.484375 -4.9375 L 3.484375 -4.8125 L 8.21875 -2.296875 L 8.21875 -0.09375 Z M 1.359375 -3.765625 "/></g></g><g style="fill:#000000;fill-opacity:1;"><g transform="translate(607.94719, 292.077779)"><path style="stroke:none" d="M 1.171875 2.203125 L 6.296875 -12.140625 L 8.421875 -12.140625 L 3.296875 2.203125 Z M 1.171875 2.203125 "/></g></g><g style="fill:#000000;fill-opacity:1;"><g transform="translate(617.529449, 292.077779)"><path style="stroke:none" d="M 6.953125 0 L 6.25 -2.6875 L 3.1875 -2.6875 L 2.5 0 L 0.078125 0 L 3.09375 -11.140625 L 6.484375 -11.140625 L 9.5 0 Z M 4.796875 -8.828125 L 4.65625 -8.828125 L 3.578125 -4.609375 L 5.875 -4.609375 Z M 4.796875 -8.828125 "/></g></g><g style="fill:#000000;fill-opacity:1;"><g transform="translate(627.111709, 292.077779)"><path style="stroke:none" d="M 5.125 0.1875 C 4.476562 0.1875 3.894531 0.0859375 3.375 -0.109375 C 2.863281 -0.304688 2.425781 -0.585938 2.0625 -0.953125 C 1.707031 -1.328125 1.429688 -1.78125 1.234375 -2.3125 C 1.046875 -2.84375 0.953125 -3.445312 0.953125 -4.125 C 0.953125 -4.789062 1.046875 -5.390625 1.234375 -5.921875 C 1.429688 -6.453125 1.707031 -6.90625 2.0625 -7.28125 C 2.425781 -7.65625 2.863281 -7.941406 3.375 -8.140625 C 3.894531 -8.335938 4.472656 -8.4375 5.109375 -8.4375 C 6.015625 -8.4375 6.738281 -8.25 7.28125 -7.875 C 7.832031 -7.507812 8.253906 -7.023438 8.546875 -6.421875 L 6.71875 -5.421875 C 6.570312 -5.742188 6.378906 -6.007812 6.140625 -6.21875 C 5.898438 -6.4375 5.554688 -6.546875 5.109375 -6.546875 C 4.566406 -6.546875 4.148438 -6.390625 3.859375 -6.078125 C 3.566406 -5.765625 3.421875 -5.335938 3.421875 -4.796875 L 3.421875 -3.453125 C 3.421875 -2.910156 3.566406 -2.476562 3.859375 -2.15625 C 4.148438 -1.84375 4.578125 -1.6875 5.140625 -1.6875 C 5.597656 -1.6875 5.957031 -1.789062 6.21875 -2 C 6.476562 -2.21875 6.695312 -2.5 6.875 -2.84375 L 8.671875 -1.828125 C 8.367188 -1.210938 7.929688 -0.722656 7.359375 -0.359375 C 6.796875 0.00390625 6.050781 0.1875 5.125 0.1875 Z M 5.125 0.1875 "/></g></g><g style="fill:#000000;fill-opacity:1;"><g transform="translate(636.693968, 292.077779)"><path style="stroke:none" d="M 5.125 0.1875 C 4.476562 0.1875 3.894531 0.0859375 3.375 -0.109375 C 2.863281 -0.304688 2.425781 -0.585938 2.0625 -0.953125 C 1.707031 -1.328125 1.429688 -1.78125 1.234375 -2.3125 C 1.046875 -2.84375 0.953125 -3.445312 0.953125 -4.125 C 0.953125 -4.789062 1.046875 -5.390625 1.234375 -5.921875 C 1.429688 -6.453125 1.707031 -6.90625 2.0625 -7.28125 C 2.425781 -7.65625 2.863281 -7.941406 3.375 -8.140625 C 3.894531 -8.335938 4.472656 -8.4375 5.109375 -8.4375 C 6.015625 -8.4375 6.738281 -8.25 7.28125 -7.875 C 7.832031 -7.507812 8.253906 -7.023438 8.546875 -6.421875 L 6.71875 -5.421875 C 6.570312 -5.742188 6.378906 -6.007812 6.140625 -6.21875 C 5.898438 -6.4375 5.554688 -6.546875 5.109375 -6.546875 C 4.566406 -6.546875 4.148438 -6.390625 3.859375 -6.078125 C 3.566406 -5.765625 3.421875 -5.335938 3.421875 -4.796875 L 3.421875 -3.453125 C 3.421875 -2.910156 3.566406 -2.476562 3.859375 -2.15625 C 4.148438 -1.84375 4.578125 -1.6875 5.140625 -1.6875 C 5.597656 -1.6875 5.957031 -1.789062 6.21875 -2 C 6.476562 -2.21875 6.695312 -2.5 6.875 -2.84375 L 8.671875 -1.828125 C 8.367188 -1.210938 7.929688 -0.722656 7.359375 -0.359375 C 6.796875 0.00390625 6.050781 0.1875 5.125 0.1875 Z M 5.125 0.1875 "/></g></g><g style="fill:#000000;fill-opacity:1;"><g transform="translate(646.276228, 292.077779)"><path style="stroke:none" d="M 4.796875 0.1875 C 4.148438 0.1875 3.570312 0.0859375 3.0625 -0.109375 C 2.550781 -0.304688 2.117188 -0.585938 1.765625 -0.953125 C 1.410156 -1.328125 1.132812 -1.78125 0.9375 -2.3125 C 0.75 -2.84375 0.65625 -3.445312 0.65625 -4.125 C 0.65625 -4.789062 0.75 -5.390625 0.9375 -5.921875 C 1.132812 -6.453125 1.410156 -6.90625 1.765625 -7.28125 C 2.117188 -7.65625 2.550781 -7.941406 3.0625 -8.140625 C 3.570312 -8.335938 4.148438 -8.4375 4.796875 -8.4375 C 5.429688 -8.4375 6.003906 -8.335938 6.515625 -8.140625 C 7.023438 -7.941406 7.457031 -7.65625 7.8125 -7.28125 C 8.175781 -6.90625 8.453125 -6.453125 8.640625 -5.921875 C 8.828125 -5.390625 8.921875 -4.789062 8.921875 -4.125 C 8.921875 -3.445312 8.828125 -2.84375 8.640625 -2.3125 C 8.453125 -1.78125 8.175781 -1.328125 7.8125 -0.953125 C 7.457031 -0.585938 7.023438 -0.304688 6.515625 -0.109375 C 6.003906 0.0859375 5.429688 0.1875 4.796875 0.1875 Z M 4.796875 -1.5625 C 5.328125 -1.5625 5.738281 -1.726562 6.03125 -2.0625 C 6.332031 -2.394531 6.484375 -2.863281 6.484375 -3.46875 L 6.484375 -4.78125 C 6.484375 -5.382812 6.332031 -5.847656 6.03125 -6.171875 C 5.738281 -6.503906 5.328125 -6.671875 4.796875 -6.671875 C 4.265625 -6.671875 3.847656 -6.503906 3.546875 -6.171875 C 3.242188 -5.847656 3.09375 -5.382812 3.09375 -4.78125 L 3.09375 -3.46875 C 3.09375 -2.863281 3.242188 -2.394531 3.546875 -2.0625 C 3.847656 -1.726562 4.265625 -1.5625 4.796875 -1.5625 Z M 4.796875 -1.5625 "/></g></g><g style="fill:#000000;fill-opacity:1;"><g transform="translate(655.858488, 292.077779)"><path style="stroke:none" d="M 1.1875 -1.84375 L 3.078125 -1.84375 L 3.078125 -6.40625 L 1.1875 -6.40625 L 1.1875 -8.234375 L 5.453125 -8.234375 L 5.453125 -5.90625 L 5.5625 -5.90625 C 5.632812 -6.207031 5.734375 -6.5 5.859375 -6.78125 C 5.992188 -7.0625 6.164062 -7.3125 6.375 -7.53125 C 6.582031 -7.75 6.832031 -7.921875 7.125 -8.046875 C 7.425781 -8.171875 7.78125 -8.234375 8.1875 -8.234375 L 8.96875 -8.234375 L 8.96875 -6.0625 L 7.21875 -6.0625 C 6.632812 -6.0625 6.191406 -5.890625 5.890625 -5.546875 C 5.597656 -5.203125 5.453125 -4.78125 5.453125 -4.28125 L 5.453125 -1.84375 L 8.15625 -1.84375 L 8.15625 0 L 1.1875 0 Z M 1.1875 -1.84375 "/></g></g><g style="fill:#000000;fill-opacity:1;"><g transform="translate(665.440747, 292.077779)"><path style="stroke:none" d="M 6.28125 -1.5 L 6.15625 -1.5 C 5.945312 -1 5.648438 -0.59375 5.265625 -0.28125 C 4.890625 0.03125 4.375 0.1875 3.71875 0.1875 C 3.257812 0.1875 2.84375 0.101562 2.46875 -0.0625 C 2.09375 -0.226562 1.765625 -0.488281 1.484375 -0.84375 C 1.210938 -1.195312 1 -1.644531 0.84375 -2.1875 C 0.695312 -2.726562 0.625 -3.375 0.625 -4.125 C 0.625 -4.863281 0.695312 -5.503906 0.84375 -6.046875 C 1 -6.585938 1.210938 -7.035156 1.484375 -7.390625 C 1.765625 -7.742188 2.09375 -8.003906 2.46875 -8.171875 C 2.84375 -8.347656 3.257812 -8.4375 3.71875 -8.4375 C 4.050781 -8.4375 4.34375 -8.390625 4.59375 -8.296875 C 4.851562 -8.210938 5.082031 -8.097656 5.28125 -7.953125 C 5.476562 -7.804688 5.644531 -7.628906 5.78125 -7.421875 C 5.925781 -7.210938 6.050781 -6.984375 6.15625 -6.734375 L 6.28125 -6.734375 L 6.28125 -11.8125 L 8.640625 -11.8125 L 8.640625 0 L 6.28125 0 Z M 4.75 -1.640625 C 5.15625 -1.640625 5.507812 -1.738281 5.8125 -1.9375 C 6.125 -2.144531 6.28125 -2.46875 6.28125 -2.90625 L 6.28125 -5.328125 C 6.28125 -5.765625 6.125 -6.082031 5.8125 -6.28125 C 5.507812 -6.488281 5.15625 -6.59375 4.75 -6.59375 C 4.207031 -6.59375 3.789062 -6.429688 3.5 -6.109375 C 3.21875 -5.785156 3.078125 -5.335938 3.078125 -4.765625 L 3.078125 -3.484375 C 3.078125 -2.910156 3.21875 -2.457031 3.5 -2.125 C 3.789062 -1.800781 4.207031 -1.640625 4.75 -1.640625 Z M 4.75 -1.640625 "/></g></g><g style="fill:#000000;fill-opacity:1;"><g transform="translate(675.023007, 292.077779)"><path style="stroke:none" d="M 5.296875 -9.296875 C 4.765625 -9.296875 4.394531 -9.40625 4.1875 -9.625 C 3.976562 -9.84375 3.875 -10.101562 3.875 -10.40625 L 3.875 -10.875 C 3.875 -11.195312 3.976562 -11.460938 4.1875 -11.671875 C 4.394531 -11.890625 4.765625 -12 5.296875 -12 C 5.828125 -12 6.195312 -11.890625 6.40625 -11.671875 C 6.613281 -11.460938 6.71875 -11.195312 6.71875 -10.875 L 6.71875 -10.40625 C 6.71875 -10.101562 6.613281 -9.84375 6.40625 -9.625 C 6.195312 -9.40625 5.828125 -9.296875 5.296875 -9.296875 Z M 1.5 -1.84375 L 4.125 -1.84375 L 4.125 -6.40625 L 1.5 -6.40625 L 1.5 -8.234375 L 6.484375 -8.234375 L 6.484375 -1.84375 L 8.90625 -1.84375 L 8.90625 0 L 1.5 0 Z M 1.5 -1.84375 "/></g></g><g style="fill:#000000;fill-opacity:1;"><g transform="translate(684.605266, 292.077779)"><path style="stroke:none" d="M 4.796875 0.1875 C 4.148438 0.1875 3.570312 0.0859375 3.0625 -0.109375 C 2.550781 -0.304688 2.117188 -0.585938 1.765625 -0.953125 C 1.410156 -1.328125 1.132812 -1.78125 0.9375 -2.3125 C 0.75 -2.84375 0.65625 -3.445312 0.65625 -4.125 C 0.65625 -4.789062 0.75 -5.390625 0.9375 -5.921875 C 1.132812 -6.453125 1.410156 -6.90625 1.765625 -7.28125 C 2.117188 -7.65625 2.550781 -7.941406 3.0625 -8.140625 C 3.570312 -8.335938 4.148438 -8.4375 4.796875 -8.4375 C 5.429688 -8.4375 6.003906 -8.335938 6.515625 -8.140625 C 7.023438 -7.941406 7.457031 -7.65625 7.8125 -7.28125 C 8.175781 -6.90625 8.453125 -6.453125 8.640625 -5.921875 C 8.828125 -5.390625 8.921875 -4.789062 8.921875 -4.125 C 8.921875 -3.445312 8.828125 -2.84375 8.640625 -2.3125 C 8.453125 -1.78125 8.175781 -1.328125 7.8125 -0.953125 C 7.457031 -0.585938 7.023438 -0.304688 6.515625 -0.109375 C 6.003906 0.0859375 5.429688 0.1875 4.796875 0.1875 Z M 4.796875 -1.5625 C 5.328125 -1.5625 5.738281 -1.726562 6.03125 -2.0625 C 6.332031 -2.394531 6.484375 -2.863281 6.484375 -3.46875 L 6.484375 -4.78125 C 6.484375 -5.382812 6.332031 -5.847656 6.03125 -6.171875 C 5.738281 -6.503906 5.328125 -6.671875 4.796875 -6.671875 C 4.265625 -6.671875 3.847656 -6.503906 3.546875 -6.171875 C 3.242188 -5.847656 3.09375 -5.382812 3.09375 -4.78125 L 3.09375 -3.46875 C 3.09375 -2.863281 3.242188 -2.394531 3.546875 -2.0625 C 3.847656 -1.726562 4.265625 -1.5625 4.796875 -1.5625 Z M 4.796875 -1.5625 "/></g></g><g style="fill:#000000;fill-opacity:1;"><g transform="translate(694.187526, 292.077779)"><path style="stroke:none" d="M 1.03125 0 L 1.03125 -8.234375 L 3.40625 -8.234375 L 3.40625 -6.734375 L 3.5 -6.734375 C 3.59375 -6.972656 3.707031 -7.191406 3.84375 -7.390625 C 3.988281 -7.597656 4.15625 -7.773438 4.34375 -7.921875 C 4.539062 -8.078125 4.769531 -8.203125 5.03125 -8.296875 C 5.289062 -8.390625 5.585938 -8.4375 5.921875 -8.4375 C 6.316406 -8.4375 6.675781 -8.367188 7 -8.234375 C 7.332031 -8.097656 7.613281 -7.894531 7.84375 -7.625 C 8.082031 -7.363281 8.269531 -7.039062 8.40625 -6.65625 C 8.539062 -6.269531 8.609375 -5.828125 8.609375 -5.328125 L 8.609375 0 L 6.25 0 L 6.25 -5.015625 C 6.25 -6.078125 5.785156 -6.609375 4.859375 -6.609375 C 4.671875 -6.609375 4.488281 -6.582031 4.3125 -6.53125 C 4.144531 -6.488281 3.988281 -6.414062 3.84375 -6.3125 C 3.707031 -6.207031 3.597656 -6.082031 3.515625 -5.9375 C 3.441406 -5.789062 3.40625 -5.613281 3.40625 -5.40625 L 3.40625 0 Z M 1.03125 0 "/></g></g><g style="fill:#000000;fill-opacity:1;"><g transform="translate(703.769785, 292.077779)"><path style="stroke:none" d="M 1.359375 -2.296875 L 6.09375 -4.8125 L 6.09375 -4.9375 L 1.359375 -7.4375 L 1.359375 -9.640625 L 8.21875 -5.96875 L 8.21875 -3.765625 L 1.359375 -0.09375 Z M 1.359375 -2.296875 "/></g></g></g></svg>