<svg xmlns="http://www.w3.org/2000/svg" xmlns:xlink="http://www.w3.org/1999/xlink" width="965" zoomAndPan="magnify" viewBox="0 0 723.75 395.999985" height="528" preserveAspectRatio="xMidYMid meet" version="1.2"><defs><clipPath id="34338a09f0"><path d="M 0 0.0703125 L 554.746094 0.0703125 L 554.746094 395.652344 L 0 395.652344 Z M 0 0.0703125 "/></clipPath><clipPath id="c91fc8026b"><path d="M 9.746094 0.0703125 L 544.371094 0.0703125 C 546.957031 0.0703125 549.433594 1.09375 551.261719 2.921875 C 553.089844 4.75 554.117188 7.230469 554.117188 9.816406 L 554.117188 385.90625 C 554.117188 388.492188 553.089844 390.96875 551.261719 392.796875 C 549.433594 394.625 546.957031 395.652344 544.371094 395.652344 L 9.746094 395.652344 C 7.160156 395.652344 4.683594 394.625 2.855469 392.796875 C 1.027344 390.96875 0 388.492188 0 385.90625 L 0 9.816406 C 0 7.230469 1.027344 4.75 2.855469 2.921875 C 4.683594 1.09375 7.160156 0.0703125 9.746094 0.0703125 Z M 9.746094 0.0703125 "/></clipPath><clipPath id="b24fd294cf"><path d="M 43.632812 11.417969 L 510.613281 11.417969 L 510.613281 50.484375 L 43.632812 50.484375 Z M 43.632812 11.417969 "/></clipPath><clipPath id="600dc6c60c"><path d="M 49.632812 11.417969 L 504.484375 11.417969 C 507.796875 11.417969 510.484375 14.101562 510.484375 17.414062 L 510.484375 44.488281 C 510.484375 47.800781 507.796875 50.484375 504.484375 50.484375 L 49.632812 50.484375 C 46.320312 50.484375 43.632812 47.800781 43.632812 44.488281 L 43.632812 17.414062 C 43.632812 14.101562 46.320312 11.417969 49.632812 11.417969 Z M 49.632812 11.417969 "/></clipPath><clipPath id="b49e2322b6"><path d="M 54.570312 197.4375 L 310.726562 197.4375 L 310.726562 279.921875 L 54.570312 279.921875 Z M 54.570312 197.4375 "/></clipPath><clipPath id="666ae1093c"><path d="M 60.570312 197.4375 L 304.464844 197.4375 C 307.777344 197.4375 310.464844 200.121094 310.464844 203.433594 L 310.464844 273.925781 C 310.464844 277.238281 307.777344 279.921875 304.464844 279.921875 L 60.570312 279.921875 C 57.257812 279.921875 54.570312 277.238281 54.570312 273.925781 L 54.570312 203.433594 C 54.570312 200.121094 57.257812 197.4375 60.570312 197.4375 Z M 60.570312 197.4375 "/></clipPath><clipPath id="fe48bf9c09"><path d="M 166.925781 214.894531 L 202.914062 214.894531 L 202.914062 262.125 L 166.925781 262.125 Z M 166.925781 214.894531 "/></clipPath><clipPath id="0228fac51f"><path d="M 319.363281 247.390625 L 384.636719 247.390625 L 384.636719 268.953125 L 319.363281 268.953125 Z M 319.363281 247.390625 "/></clipPath><clipPath id="02123e3da7"><path d="M 325.359375 247.390625 L 378.570312 247.390625 C 381.882812 247.390625 384.570312 250.078125 384.570312 253.390625 L 384.570312 262.957031 C 384.570312 266.269531 381.882812 268.953125 378.570312 268.953125 L 325.359375 268.953125 C 322.046875 268.953125 319.363281 266.269531 319.363281 262.957031 L 319.363281 253.390625 C 319.363281 250.078125 322.046875 247.390625 325.359375 247.390625 Z M 325.359375 247.390625 "/></clipPath><clipPath id="0ef819e8f4"><path d="M 393.574219 247.390625 L 458.785156 247.390625 L 458.785156 269 L 393.574219 269 Z M 393.574219 247.390625 "/></clipPath><clipPath id="a137552e6c"><path d="M 399.570312 247.390625 L 452.765625 247.390625 C 456.078125 247.390625 458.761719 250.078125 458.761719 253.386719 L 458.761719 262.949219 C 458.761719 266.261719 456.078125 268.945312 452.765625 268.945312 L 399.570312 268.945312 C 396.257812 268.945312 393.574219 266.261719 393.574219 262.949219 L 393.574219 253.386719 C 393.574219 250.078125 396.257812 247.390625 399.570312 247.390625 Z M 399.570312 247.390625 "/></clipPath><clipPath id="3ff61cb7da"><path d="M 580.679688 50.484375 L 722.800781 50.484375 L 722.800781 93.390625 L 580.679688 93.390625 Z M 580.679688 50.484375 "/></clipPath><clipPath id="73b5059463"><path d="M 586.675781 50.484375 L 716.777344 50.484375 C 720.09375 50.484375 722.777344 53.171875 722.777344 56.484375 L 722.777344 87.390625 C 722.777344 90.703125 720.09375 93.390625 716.777344 93.390625 L 586.675781 93.390625 C 583.363281 93.390625 580.679688 90.703125 580.679688 87.390625 L 580.679688 56.484375 C 580.679688 53.171875 583.363281 50.484375 586.675781 50.484375 Z M 586.675781 50.484375 "/></clipPath><clipPath id="c797605b61"><path d="M 600.738281 279.921875 L 702.816406 279.921875 L 702.816406 322.480469 L 600.738281 322.480469 Z M 600.738281 279.921875 "/></clipPath><clipPath id="9afe1c08db"><path d="M 606.738281 279.921875 L 696.71875 279.921875 C 700.03125 279.921875 702.71875 282.605469 702.71875 285.917969 L 702.71875 316.484375 C 702.71875 319.796875 700.03125 322.480469 696.71875 322.480469 L 606.738281 322.480469 C 603.425781 322.480469 600.738281 319.796875 600.738281 316.484375 L 600.738281 285.917969 C 600.738281 282.605469 603.425781 279.921875 606.738281 279.921875 Z M 606.738281 279.921875 "/></clipPath></defs><g id="6a9be736d6"><g clip-rule="nonzero" clip-path="url(#34338a09f0)"><g clip-rule="nonzero" clip-path="url(#c91fc8026b)"><path style=" stroke:none;fill-rule:nonzero;fill:#f1f5f8;fill-opacity:1;" d="M 0 0.0703125 L 554.746094 0.0703125 L 554.746094 395.652344 L 0 395.652344 Z M 0 0.0703125 "/></g></g><path style="fill:none;stroke-width:20;stroke-linecap:round;stroke-linejoin:miter;stroke:#727d87;stroke-opacity:1;stroke-miterlimit:4;" d="M 10.000801 10.001566 L 171.244108 10.001566 " transform="matrix(0.748771,0.00000000000000047,-0.00000000000000047,0.748771,133.19528,100.577519)"/><path style="fill:none;stroke-width:20;stroke-linecap:round;stroke-linejoin:miter;stroke:#727d87;stroke-opacity:1;stroke-miterlimit:4;" d="M 10.000633 10.001536 L 50.212647 10.001536 " transform="matrix(0.747211,-0.00000000000000278,0.00000000000000278,0.747211,280.500069,100.577519)"/><path style="fill:none;stroke-width:20;stroke-linecap:round;stroke-linejoin:miter;stroke:#727d87;stroke-opacity:1;stroke-miterlimit:4;" d="M 10.001747 10.000813 L 102.082088 10.000813 " transform="matrix(0.749218,0,0,0.749218,336.88932,100.577519)"/><path style="fill:none;stroke-width:15;stroke-linecap:round;stroke-linejoin:miter;stroke:#bac1c9;stroke-opacity:1;stroke-miterlimit:4;" d="M 7.498665 7.498797 L 338.788291 7.498797 " transform="matrix(0.749132,0,0,0.749132,147.245791,127.710536)"/><path style="fill:none;stroke-width:15;stroke-linecap:round;stroke-linejoin:miter;stroke:#bac1c9;stroke-opacity:1;stroke-miterlimit:4;" d="M 7.500287 7.497402 L 284.889236 7.497402 " transform="matrix(0.748779,-0.000000000000000557,0.000000000000000557,0.748779,167.450346,150.952506)"/><g clip-rule="nonzero" clip-path="url(#b24fd294cf)"><g clip-rule="nonzero" clip-path="url(#600dc6c60c)"><path style=" stroke:none;fill-rule:nonzero;fill:#d7207c;fill-opacity:1;" d="M 43.632812 11.417969 L 510.460938 11.417969 L 510.460938 50.484375 L 43.632812 50.484375 Z M 43.632812 11.417969 "/></g></g><path style="fill:none;stroke-width:20;stroke-linecap:round;stroke-linejoin:miter;stroke:#ffffff;stroke-opacity:1;stroke-miterlimit:4;" d="M 10.000896 10.002532 L 60.523552 10.002532 " transform="matrix(0.749741,-0.000000000000001209,0.000000000000001209,0.749741,54.130825,23.453817)"/><path style="fill:none;stroke-width:10;stroke-linecap:round;stroke-linejoin:miter;stroke:#ffffff;stroke-opacity:1;stroke-miterlimit:4;" d="M 4.997582 5.002532 L 65.523692 5.002532 " transform="matrix(0.749741,-0.000000000000001209,0.000000000000001209,0.749741,447.979671,27.202521)"/><path style="fill:none;stroke-width:10;stroke-linecap:round;stroke-linejoin:miter;stroke:#ffffff;stroke-opacity:1;stroke-miterlimit:4;" d="M 5.001091 5.002532 L 44.634569 5.002532 " transform="matrix(0.749741,0.000000000000000859,-0.000000000000000859,0.749741,399.316884,27.202521)"/><path style="fill:none;stroke-width:10;stroke-linecap:round;stroke-linejoin:miter;stroke:#ffffff;stroke-opacity:1;stroke-miterlimit:4;" d="M 4.999911 5.002532 L 74.576022 5.002532 " transform="matrix(0.749741,0.000000000000000536,-0.000000000000000536,0.749741,328.407612,27.202521)"/><path style="fill:none;stroke-width:10;stroke-linecap:round;stroke-linejoin:miter;stroke:#ffffff;stroke-opacity:1;stroke-miterlimit:4;" d="M 5.000561 4.997625 L 54.386713 4.997625 " transform="matrix(0.745006,0,0,0.745006,272.637834,27.202521)"/><g clip-rule="nonzero" clip-path="url(#b49e2322b6)"><g clip-rule="nonzero" clip-path="url(#666ae1093c)"><path style=" stroke:none;fill-rule:nonzero;fill:#13b08a;fill-opacity:1;" d="M 54.570312 197.4375 L 310.40625 197.4375 L 310.40625 279.921875 L 54.570312 279.921875 Z M 54.570312 197.4375 "/></g></g><g clip-rule="nonzero" clip-path="url(#fe48bf9c09)"><path style=" stroke:none;fill-rule:nonzero;fill:#ffffff;fill-opacity:1;" d="M 170.09375 262.097656 C 171.125 262.097656 172.304688 261.652344 173.519531 260.808594 L 199.738281 242.875 C 201.433594 241.730469 202.351562 240.148438 202.351562 238.492188 C 202.351562 236.835938 201.433594 235.25 199.738281 234.109375 L 173.554688 216.175781 C 172.339844 215.328125 171.125 214.921875 170.09375 214.921875 C 168.140625 214.921875 166.925781 216.507812 166.925781 219.121094 L 166.925781 257.898438 C 166.925781 260.511719 168.140625 262.097656 170.09375 262.097656 Z M 170.09375 262.097656 "/></g><path style="fill:none;stroke-width:10;stroke-linecap:round;stroke-linejoin:miter;stroke:#bac1c9;stroke-opacity:1;stroke-miterlimit:4;" d="M 4.998284 4.999203 L 235.325161 4.999203 " transform="matrix(0.748766,0,0,0.748766,319.362923,208.405204)"/><path style="fill:none;stroke-width:10;stroke-linecap:round;stroke-linejoin:miter;stroke:#bac1c9;stroke-opacity:1;stroke-miterlimit:4;" d="M 4.998084 4.997562 L 130.460972 4.997562 " transform="matrix(0.747233,0,0,0.747233,319.362923,227.89847)"/><g clip-rule="nonzero" clip-path="url(#0228fac51f)"><g clip-rule="nonzero" clip-path="url(#02123e3da7)"><path style=" stroke:none;fill-rule:nonzero;fill:#bac1c9;fill-opacity:1;" d="M 319.363281 247.390625 L 384.550781 247.390625 L 384.550781 268.953125 L 319.363281 268.953125 Z M 319.363281 247.390625 "/></g></g><g clip-rule="nonzero" clip-path="url(#0ef819e8f4)"><g clip-rule="nonzero" clip-path="url(#a137552e6c)"><path style="fill:none;stroke-width:8;stroke-linecap:butt;stroke-linejoin:miter;stroke:#bac1c9;stroke-opacity:1;stroke-miterlimit:4;" d="M 7.997004 -0.00150043 L 78.948585 -0.00150043 C 83.366778 -0.00150043 86.946138 3.583071 86.946138 7.996053 L 86.946138 20.750457 C 86.946138 25.168649 83.366778 28.74801 78.948585 28.74801 L 7.997004 28.74801 C 3.578812 28.74801 -0.000549335 25.168649 -0.000549335 20.750457 L -0.000549335 7.996053 C -0.000549335 3.583071 3.578812 -0.00150043 7.997004 -0.00150043 Z M 7.997004 -0.00150043 " transform="matrix(0.749741,0,0,0.749741,393.574631,247.39175)"/></g></g><path style="fill:none;stroke-width:10;stroke-linecap:round;stroke-linejoin:miter;stroke:#bac1c9;stroke-opacity:1;stroke-miterlimit:4;" d="M 5.002107 4.998484 L 70.265311 4.998484 " transform="matrix(0.747095,0,0,0.747095,429.673107,227.89847)"/><path style="fill:none;stroke-width:10;stroke-linecap:round;stroke-linejoin:miter;stroke:#bac1c9;stroke-opacity:1;stroke-miterlimit:4;" d="M 5.001391 5.001246 L 473.404852 5.001246 " transform="matrix(0.749129,0,0,0.749129,97.718158,319.944829)"/><path style="fill:none;stroke-width:10;stroke-linecap:round;stroke-linejoin:miter;stroke:#bac1c9;stroke-opacity:1;stroke-miterlimit:4;" d="M 5.001503 4.999919 L 423.371853 4.999919 " transform="matrix(0.749112,-0.000000000000000186,0.000000000000000186,0.749112,97.718158,339.438094)"/><path style="fill:none;stroke-width:10;stroke-linecap:round;stroke-linejoin:miter;stroke:#bac1c9;stroke-opacity:1;stroke-miterlimit:4;" d="M 4.999864 5.002055 L 453.24323 5.002055 " transform="matrix(0.749358,0,0,0.749358,97.718158,358.93136)"/><g clip-rule="nonzero" clip-path="url(#3ff61cb7da)"><g clip-rule="nonzero" clip-path="url(#73b5059463)"><path style=" stroke:none;fill-rule:nonzero;fill:#f1f5f8;fill-opacity:1;" d="M 580.679688 50.484375 L 722.800781 50.484375 L 722.800781 93.390625 L 580.679688 93.390625 Z M 580.679688 50.484375 "/></g></g><g style="fill:#001020;fill-opacity:1;"><g transform="translate(592.968279, 76.725879)"><path style="stroke:none" d="M 1.1875 -3.296875 L 1.1875 -5.234375 L 7.203125 -8.453125 L 7.203125 -6.515625 L 3.046875 -4.328125 L 3.046875 -4.203125 L 7.203125 -2.015625 L 7.203125 -0.078125 Z M 1.1875 -3.296875 "/></g></g><g style="fill:#001020;fill-opacity:1;"><g transform="translate(601.360697, 76.725879)"><path style="stroke:none" d="M 2.796875 -6.484375 L 2.640625 -6.484375 L 2.640625 0 L 0.859375 0 L 0.859375 -9.765625 L 3.375 -9.765625 L 5.59375 -3.265625 L 5.75 -3.265625 L 5.75 -9.765625 L 7.53125 -9.765625 L 7.53125 0 L 5.015625 0 Z M 2.796875 -6.484375 "/></g></g><g style="fill:#001020;fill-opacity:1;"><g transform="translate(609.753115, 76.725879)"><path style="stroke:none" d="M 6.8125 0 C 6.382812 0 6.039062 -0.109375 5.78125 -0.328125 C 5.519531 -0.546875 5.363281 -0.859375 5.3125 -1.265625 L 5.25 -1.265625 C 5.113281 -0.796875 4.851562 -0.4375 4.46875 -0.1875 C 4.082031 0.0507812 3.609375 0.171875 3.046875 0.171875 C 2.347656 0.171875 1.785156 -0.015625 1.359375 -0.390625 C 0.941406 -0.773438 0.734375 -1.304688 0.734375 -1.984375 C 0.734375 -2.742188 1.003906 -3.300781 1.546875 -3.65625 C 2.097656 -4.019531 2.90625 -4.203125 3.96875 -4.203125 L 5.125 -4.203125 L 5.125 -4.578125 C 5.125 -5.003906 5.023438 -5.328125 4.828125 -5.546875 C 4.628906 -5.765625 4.289062 -5.875 3.8125 -5.875 C 3.375 -5.875 3.019531 -5.789062 2.75 -5.625 C 2.476562 -5.457031 2.25 -5.238281 2.0625 -4.96875 L 0.921875 -5.96875 C 1.160156 -6.382812 1.539062 -6.722656 2.0625 -6.984375 C 2.582031 -7.253906 3.25 -7.390625 4.0625 -7.390625 C 5.039062 -7.390625 5.804688 -7.160156 6.359375 -6.703125 C 6.921875 -6.253906 7.203125 -5.570312 7.203125 -4.65625 L 7.203125 -1.5 L 8 -1.5 L 8 0 Z M 3.828125 -1.1875 C 4.191406 -1.1875 4.5 -1.273438 4.75 -1.453125 C 5 -1.628906 5.125 -1.882812 5.125 -2.21875 L 5.125 -3.09375 L 4.03125 -3.09375 C 3.175781 -3.09375 2.75 -2.804688 2.75 -2.234375 L 2.75 -1.953125 C 2.75 -1.703125 2.847656 -1.507812 3.046875 -1.375 C 3.242188 -1.25 3.503906 -1.1875 3.828125 -1.1875 Z M 3.828125 -1.1875 "/></g></g><g style="fill:#001020;fill-opacity:1;"><g transform="translate(618.145532, 76.725879)"><path style="stroke:none" d="M 2.96875 0 L 0.375 -7.21875 L 2.5625 -7.21875 L 3.5 -4.125 L 4.1875 -1.71875 L 4.296875 -1.71875 L 4.984375 -4.125 L 5.921875 -7.21875 L 8.015625 -7.21875 L 5.421875 0 Z M 2.96875 0 "/></g></g><g style="fill:#001020;fill-opacity:1;"><g transform="translate(626.53795, 76.725879)"><path style="stroke:none" d="M 4.640625 -8.140625 C 4.171875 -8.140625 3.84375 -8.234375 3.65625 -8.421875 C 3.476562 -8.617188 3.390625 -8.851562 3.390625 -9.125 L 3.390625 -9.515625 C 3.390625 -9.796875 3.476562 -10.03125 3.65625 -10.21875 C 3.84375 -10.40625 4.171875 -10.5 4.640625 -10.5 C 5.109375 -10.5 5.429688 -10.40625 5.609375 -10.21875 C 5.796875 -10.03125 5.890625 -9.796875 5.890625 -9.515625 L 5.890625 -9.125 C 5.890625 -8.851562 5.796875 -8.617188 5.609375 -8.421875 C 5.429688 -8.234375 5.109375 -8.140625 4.640625 -8.140625 Z M 1.3125 -1.609375 L 3.609375 -1.609375 L 3.609375 -5.609375 L 1.3125 -5.609375 L 1.3125 -7.21875 L 5.671875 -7.21875 L 5.671875 -1.609375 L 7.796875 -1.609375 L 7.796875 0 L 1.3125 0 Z M 1.3125 -1.609375 "/></g></g><g style="fill:#001020;fill-opacity:1;"><g transform="translate(634.930368, 76.725879)"><path style="stroke:none" d="M 8.15625 0.734375 C 8.15625 1.492188 7.832031 2.054688 7.1875 2.421875 C 6.539062 2.785156 5.53125 2.96875 4.15625 2.96875 C 3.46875 2.96875 2.898438 2.925781 2.453125 2.84375 C 2.003906 2.769531 1.644531 2.65625 1.375 2.5 C 1.113281 2.351562 0.925781 2.175781 0.8125 1.96875 C 0.707031 1.769531 0.65625 1.546875 0.65625 1.296875 C 0.65625 0.890625 0.773438 0.582031 1.015625 0.375 C 1.265625 0.164062 1.609375 0.00390625 2.046875 -0.109375 L 2.046875 -0.203125 C 1.734375 -0.285156 1.484375 -0.414062 1.296875 -0.59375 C 1.117188 -0.769531 1.03125 -1.015625 1.03125 -1.328125 C 1.03125 -1.679688 1.148438 -1.941406 1.390625 -2.109375 C 1.628906 -2.273438 1.941406 -2.40625 2.328125 -2.5 L 2.328125 -2.59375 C 1.898438 -2.789062 1.566406 -3.078125 1.328125 -3.453125 C 1.097656 -3.828125 0.984375 -4.28125 0.984375 -4.8125 C 0.984375 -5.226562 1.054688 -5.597656 1.203125 -5.921875 C 1.347656 -6.242188 1.554688 -6.507812 1.828125 -6.71875 C 2.109375 -6.9375 2.4375 -7.101562 2.8125 -7.21875 C 3.195312 -7.332031 3.628906 -7.390625 4.109375 -7.390625 C 4.566406 -7.390625 4.992188 -7.335938 5.390625 -7.234375 L 5.390625 -7.625 C 5.390625 -7.90625 5.484375 -8.132812 5.671875 -8.3125 C 5.867188 -8.5 6.140625 -8.59375 6.484375 -8.59375 L 7.765625 -8.59375 L 7.765625 -7.09375 L 6.03125 -7.09375 L 6.03125 -6.96875 C 6.414062 -6.757812 6.71875 -6.472656 6.9375 -6.109375 C 7.15625 -5.753906 7.265625 -5.320312 7.265625 -4.8125 C 7.265625 -4.394531 7.191406 -4.023438 7.046875 -3.703125 C 6.898438 -3.390625 6.6875 -3.125 6.40625 -2.90625 C 6.125 -2.6875 5.789062 -2.519531 5.40625 -2.40625 C 5.019531 -2.289062 4.585938 -2.234375 4.109375 -2.234375 C 3.898438 -2.234375 3.695312 -2.242188 3.5 -2.265625 C 3.300781 -2.296875 3.113281 -2.332031 2.9375 -2.375 C 2.832031 -2.320312 2.742188 -2.253906 2.671875 -2.171875 C 2.609375 -2.085938 2.578125 -1.976562 2.578125 -1.84375 C 2.578125 -1.726562 2.601562 -1.640625 2.65625 -1.578125 C 2.707031 -1.515625 2.78125 -1.46875 2.875 -1.4375 C 2.976562 -1.40625 3.09375 -1.382812 3.21875 -1.375 C 3.351562 -1.363281 3.492188 -1.359375 3.640625 -1.359375 L 5.28125 -1.359375 C 5.800781 -1.359375 6.238281 -1.304688 6.59375 -1.203125 C 6.957031 -1.097656 7.253906 -0.953125 7.484375 -0.765625 C 7.722656 -0.578125 7.894531 -0.359375 8 -0.109375 C 8.101562 0.140625 8.15625 0.421875 8.15625 0.734375 Z M 6.1875 0.875 C 6.1875 0.6875 6.113281 0.539062 5.96875 0.4375 C 5.820312 0.332031 5.539062 0.28125 5.125 0.28125 L 2.640625 0.28125 C 2.453125 0.4375 2.359375 0.628906 2.359375 0.859375 C 2.359375 1.085938 2.453125 1.273438 2.640625 1.421875 C 2.835938 1.566406 3.164062 1.640625 3.625 1.640625 L 4.84375 1.640625 C 5.3125 1.640625 5.648438 1.570312 5.859375 1.4375 C 6.078125 1.3125 6.1875 1.125 6.1875 0.875 Z M 4.109375 -3.546875 C 4.523438 -3.546875 4.828125 -3.648438 5.015625 -3.859375 C 5.210938 -4.066406 5.3125 -4.328125 5.3125 -4.640625 L 5.3125 -4.984375 C 5.3125 -5.296875 5.210938 -5.550781 5.015625 -5.75 C 4.828125 -5.957031 4.523438 -6.0625 4.109375 -6.0625 C 3.703125 -6.0625 3.40625 -5.957031 3.21875 -5.75 C 3.03125 -5.550781 2.9375 -5.296875 2.9375 -4.984375 L 2.9375 -4.640625 C 2.9375 -4.328125 3.03125 -4.066406 3.21875 -3.859375 C 3.40625 -3.648438 3.703125 -3.546875 4.109375 -3.546875 Z M 4.109375 -3.546875 "/></g></g><g style="fill:#001020;fill-opacity:1;"><g transform="translate(643.322786, 76.725879)"><path style="stroke:none" d="M 6.8125 0 C 6.382812 0 6.039062 -0.109375 5.78125 -0.328125 C 5.519531 -0.546875 5.363281 -0.859375 5.3125 -1.265625 L 5.25 -1.265625 C 5.113281 -0.796875 4.851562 -0.4375 4.46875 -0.1875 C 4.082031 0.0507812 3.609375 0.171875 3.046875 0.171875 C 2.347656 0.171875 1.785156 -0.015625 1.359375 -0.390625 C 0.941406 -0.773438 0.734375 -1.304688 0.734375 -1.984375 C 0.734375 -2.742188 1.003906 -3.300781 1.546875 -3.65625 C 2.097656 -4.019531 2.90625 -4.203125 3.96875 -4.203125 L 5.125 -4.203125 L 5.125 -4.578125 C 5.125 -5.003906 5.023438 -5.328125 4.828125 -5.546875 C 4.628906 -5.765625 4.289062 -5.875 3.8125 -5.875 C 3.375 -5.875 3.019531 -5.789062 2.75 -5.625 C 2.476562 -5.457031 2.25 -5.238281 2.0625 -4.96875 L 0.921875 -5.96875 C 1.160156 -6.382812 1.539062 -6.722656 2.0625 -6.984375 C 2.582031 -7.253906 3.25 -7.390625 4.0625 -7.390625 C 5.039062 -7.390625 5.804688 -7.160156 6.359375 -6.703125 C 6.921875 -6.253906 7.203125 -5.570312 7.203125 -4.65625 L 7.203125 -1.5 L 8 -1.5 L 8 0 Z M 3.828125 -1.1875 C 4.191406 -1.1875 4.5 -1.273438 4.75 -1.453125 C 5 -1.628906 5.125 -1.882812 5.125 -2.21875 L 5.125 -3.09375 L 4.03125 -3.09375 C 3.175781 -3.09375 2.75 -2.804688 2.75 -2.234375 L 2.75 -1.953125 C 2.75 -1.703125 2.847656 -1.507812 3.046875 -1.375 C 3.242188 -1.25 3.503906 -1.1875 3.828125 -1.1875 Z M 3.828125 -1.1875 "/></g></g><g style="fill:#001020;fill-opacity:1;"><g transform="translate(651.715204, 76.725879)"><path style="stroke:none" d="M 4.75 0 C 4.007812 0 3.457031 -0.191406 3.09375 -0.578125 C 2.726562 -0.972656 2.546875 -1.472656 2.546875 -2.078125 L 2.546875 -5.609375 L 0.59375 -5.609375 L 0.59375 -7.21875 L 1.859375 -7.21875 C 2.171875 -7.21875 2.390625 -7.273438 2.515625 -7.390625 C 2.648438 -7.515625 2.71875 -7.738281 2.71875 -8.0625 L 2.71875 -9.765625 L 4.609375 -9.765625 L 4.609375 -7.21875 L 7.421875 -7.21875 L 7.421875 -5.609375 L 4.609375 -5.609375 L 4.609375 -1.609375 L 7.421875 -1.609375 L 7.421875 0 Z M 4.75 0 "/></g></g><g style="fill:#001020;fill-opacity:1;"><g transform="translate(660.107621, 76.725879)"><path style="stroke:none" d="M 4.640625 -8.140625 C 4.171875 -8.140625 3.84375 -8.234375 3.65625 -8.421875 C 3.476562 -8.617188 3.390625 -8.851562 3.390625 -9.125 L 3.390625 -9.515625 C 3.390625 -9.796875 3.476562 -10.03125 3.65625 -10.21875 C 3.84375 -10.40625 4.171875 -10.5 4.640625 -10.5 C 5.109375 -10.5 5.429688 -10.40625 5.609375 -10.21875 C 5.796875 -10.03125 5.890625 -9.796875 5.890625 -9.515625 L 5.890625 -9.125 C 5.890625 -8.851562 5.796875 -8.617188 5.609375 -8.421875 C 5.429688 -8.234375 5.109375 -8.140625 4.640625 -8.140625 Z M 1.3125 -1.609375 L 3.609375 -1.609375 L 3.609375 -5.609375 L 1.3125 -5.609375 L 1.3125 -7.21875 L 5.671875 -7.21875 L 5.671875 -1.609375 L 7.796875 -1.609375 L 7.796875 0 L 1.3125 0 Z M 1.3125 -1.609375 "/></g></g><g style="fill:#001020;fill-opacity:1;"><g transform="translate(668.500039, 76.725879)"><path style="stroke:none" d="M 4.203125 0.171875 C 3.640625 0.171875 3.132812 0.0859375 2.6875 -0.078125 C 2.238281 -0.253906 1.859375 -0.503906 1.546875 -0.828125 C 1.234375 -1.160156 0.992188 -1.5625 0.828125 -2.03125 C 0.660156 -2.5 0.578125 -3.023438 0.578125 -3.609375 C 0.578125 -4.191406 0.660156 -4.71875 0.828125 -5.1875 C 0.992188 -5.65625 1.234375 -6.050781 1.546875 -6.375 C 1.859375 -6.695312 2.238281 -6.945312 2.6875 -7.125 C 3.132812 -7.300781 3.640625 -7.390625 4.203125 -7.390625 C 4.753906 -7.390625 5.253906 -7.300781 5.703125 -7.125 C 6.148438 -6.945312 6.53125 -6.695312 6.84375 -6.375 C 7.15625 -6.050781 7.394531 -5.65625 7.5625 -5.1875 C 7.726562 -4.71875 7.8125 -4.191406 7.8125 -3.609375 C 7.8125 -3.023438 7.726562 -2.5 7.5625 -2.03125 C 7.394531 -1.5625 7.15625 -1.160156 6.84375 -0.828125 C 6.53125 -0.503906 6.148438 -0.253906 5.703125 -0.078125 C 5.253906 0.0859375 4.753906 0.171875 4.203125 0.171875 Z M 4.203125 -1.375 C 4.660156 -1.375 5.019531 -1.515625 5.28125 -1.796875 C 5.539062 -2.085938 5.671875 -2.5 5.671875 -3.03125 L 5.671875 -4.1875 C 5.671875 -4.71875 5.539062 -5.125 5.28125 -5.40625 C 5.019531 -5.695312 4.660156 -5.84375 4.203125 -5.84375 C 3.734375 -5.84375 3.367188 -5.695312 3.109375 -5.40625 C 2.847656 -5.125 2.71875 -4.71875 2.71875 -4.1875 L 2.71875 -3.03125 C 2.71875 -2.5 2.847656 -2.085938 3.109375 -1.796875 C 3.367188 -1.515625 3.734375 -1.375 4.203125 -1.375 Z M 4.203125 -1.375 "/></g></g><g style="fill:#001020;fill-opacity:1;"><g transform="translate(676.892457, 76.725879)"><path style="stroke:none" d="M 0.90625 0 L 0.90625 -7.21875 L 2.984375 -7.21875 L 2.984375 -5.90625 L 3.0625 -5.90625 C 3.144531 -6.101562 3.242188 -6.289062 3.359375 -6.46875 C 3.484375 -6.644531 3.628906 -6.800781 3.796875 -6.9375 C 3.972656 -7.070312 4.175781 -7.179688 4.40625 -7.265625 C 4.632812 -7.347656 4.894531 -7.390625 5.1875 -7.390625 C 5.53125 -7.390625 5.847656 -7.328125 6.140625 -7.203125 C 6.429688 -7.085938 6.675781 -6.910156 6.875 -6.671875 C 7.082031 -6.441406 7.242188 -6.160156 7.359375 -5.828125 C 7.472656 -5.492188 7.53125 -5.109375 7.53125 -4.671875 L 7.53125 0 L 5.46875 0 L 5.46875 -4.390625 C 5.46875 -5.328125 5.0625 -5.796875 4.25 -5.796875 C 4.09375 -5.796875 3.9375 -5.769531 3.78125 -5.71875 C 3.625 -5.675781 3.484375 -5.609375 3.359375 -5.515625 C 3.242188 -5.429688 3.148438 -5.320312 3.078125 -5.1875 C 3.015625 -5.0625 2.984375 -4.910156 2.984375 -4.734375 L 2.984375 0 Z M 0.90625 0 "/></g></g><g style="fill:#001020;fill-opacity:1;"><g transform="translate(685.284875, 76.725879)"><path style="stroke:none" d=""/></g></g><g style="fill:#001020;fill-opacity:1;"><g transform="translate(693.677293, 76.725879)"><path style="stroke:none" d="M 1.015625 1.9375 L 5.515625 -10.625 L 7.375 -10.625 L 2.875 1.9375 Z M 1.015625 1.9375 "/></g></g><g style="fill:#001020;fill-opacity:1;"><g transform="translate(702.06971, 76.725879)"><path style="stroke:none" d="M 1.1875 -2.015625 L 5.34375 -4.203125 L 5.34375 -4.328125 L 1.1875 -6.515625 L 1.1875 -8.453125 L 7.203125 -5.234375 L 7.203125 -3.296875 L 1.1875 -0.078125 Z M 1.1875 -2.015625 "/></g></g><g clip-rule="nonzero" clip-path="url(#c797605b61)"><g clip-rule="nonzero" clip-path="url(#9afe1c08db)"><path style=" stroke:none;fill-rule:nonzero;fill:#f1f5f8;fill-opacity:1;" d="M 600.738281 279.921875 L 702.648438 279.921875 L 702.648438 322.480469 L 600.738281 322.480469 Z M 600.738281 279.921875 "/></g></g><g style="fill:#001020;fill-opacity:1;"><g transform="translate(613.953691, 305.412974)"><path style="stroke:none" d="M 1.1875 -3.296875 L 1.1875 -5.234375 L 7.203125 -8.453125 L 7.203125 -6.515625 L 3.046875 -4.328125 L 3.046875 -4.203125 L 7.203125 -2.015625 L 7.203125 -0.078125 Z M 1.1875 -3.296875 "/></g></g><g style="fill:#001020;fill-opacity:1;"><g transform="translate(622.346108, 305.412974)"><path style="stroke:none" d="M 2.71875 0 L 0.125 -9.765625 L 2.46875 -9.765625 L 3.609375 -4.796875 L 4.1875 -1.984375 L 4.296875 -1.984375 L 4.875 -4.796875 L 6.046875 -9.765625 L 8.265625 -9.765625 L 5.671875 0 Z M 2.71875 0 "/></g></g><g style="fill:#001020;fill-opacity:1;"><g transform="translate(630.738526, 305.412974)"><path style="stroke:none" d="M 4.640625 -8.140625 C 4.171875 -8.140625 3.84375 -8.234375 3.65625 -8.421875 C 3.476562 -8.617188 3.390625 -8.851562 3.390625 -9.125 L 3.390625 -9.515625 C 3.390625 -9.796875 3.476562 -10.03125 3.65625 -10.21875 C 3.84375 -10.40625 4.171875 -10.5 4.640625 -10.5 C 5.109375 -10.5 5.429688 -10.40625 5.609375 -10.21875 C 5.796875 -10.03125 5.890625 -9.796875 5.890625 -9.515625 L 5.890625 -9.125 C 5.890625 -8.851562 5.796875 -8.617188 5.609375 -8.421875 C 5.429688 -8.234375 5.109375 -8.140625 4.640625 -8.140625 Z M 1.3125 -1.609375 L 3.609375 -1.609375 L 3.609375 -5.609375 L 1.3125 -5.609375 L 1.3125 -7.21875 L 5.671875 -7.21875 L 5.671875 -1.609375 L 7.796875 -1.609375 L 7.796875 0 L 1.3125 0 Z M 1.3125 -1.609375 "/></g></g><g style="fill:#001020;fill-opacity:1;"><g transform="translate(639.130944, 305.412974)"><path style="stroke:none" d="M 5.5 -1.3125 L 5.390625 -1.3125 C 5.210938 -0.875 4.957031 -0.515625 4.625 -0.234375 C 4.289062 0.0351562 3.835938 0.171875 3.265625 0.171875 C 2.859375 0.171875 2.488281 0.0976562 2.15625 -0.046875 C 1.832031 -0.203125 1.550781 -0.429688 1.3125 -0.734375 C 1.070312 -1.046875 0.882812 -1.4375 0.75 -1.90625 C 0.613281 -2.382812 0.546875 -2.953125 0.546875 -3.609375 C 0.546875 -4.265625 0.613281 -4.828125 0.75 -5.296875 C 0.882812 -5.773438 1.070312 -6.164062 1.3125 -6.46875 C 1.550781 -6.78125 1.832031 -7.007812 2.15625 -7.15625 C 2.488281 -7.3125 2.859375 -7.390625 3.265625 -7.390625 C 3.546875 -7.390625 3.796875 -7.347656 4.015625 -7.265625 C 4.242188 -7.191406 4.441406 -7.085938 4.609375 -6.953125 C 4.785156 -6.828125 4.9375 -6.671875 5.0625 -6.484375 C 5.195312 -6.304688 5.304688 -6.113281 5.390625 -5.90625 L 5.5 -5.90625 L 5.5 -10.34375 L 7.5625 -10.34375 L 7.5625 0 L 5.5 0 Z M 4.15625 -1.4375 C 4.519531 -1.4375 4.832031 -1.523438 5.09375 -1.703125 C 5.363281 -1.878906 5.5 -2.160156 5.5 -2.546875 L 5.5 -4.671875 C 5.5 -5.054688 5.363281 -5.335938 5.09375 -5.515625 C 4.832031 -5.691406 4.519531 -5.78125 4.15625 -5.78125 C 3.6875 -5.78125 3.328125 -5.632812 3.078125 -5.34375 C 2.828125 -5.0625 2.703125 -4.671875 2.703125 -4.171875 L 2.703125 -3.046875 C 2.703125 -2.546875 2.828125 -2.148438 3.078125 -1.859375 C 3.328125 -1.578125 3.6875 -1.4375 4.15625 -1.4375 Z M 4.15625 -1.4375 "/></g></g><g style="fill:#001020;fill-opacity:1;"><g transform="translate(647.523362, 305.412974)"><path style="stroke:none" d="M 4.390625 0.171875 C 3.179688 0.171875 2.265625 -0.160156 1.640625 -0.828125 C 1.015625 -1.503906 0.703125 -2.421875 0.703125 -3.578125 C 0.703125 -4.171875 0.78125 -4.703125 0.9375 -5.171875 C 1.101562 -5.640625 1.335938 -6.035156 1.640625 -6.359375 C 1.941406 -6.691406 2.304688 -6.945312 2.734375 -7.125 C 3.171875 -7.300781 3.660156 -7.390625 4.203125 -7.390625 C 4.742188 -7.390625 5.226562 -7.300781 5.65625 -7.125 C 6.09375 -6.945312 6.457031 -6.703125 6.75 -6.390625 C 7.050781 -6.078125 7.28125 -5.691406 7.4375 -5.234375 C 7.601562 -4.785156 7.6875 -4.28125 7.6875 -3.71875 L 7.6875 -3.109375 L 2.75 -3.109375 L 2.75 -2.984375 C 2.75 -2.515625 2.894531 -2.132812 3.1875 -1.84375 C 3.476562 -1.5625 3.90625 -1.421875 4.46875 -1.421875 C 4.894531 -1.421875 5.257812 -1.503906 5.5625 -1.671875 C 5.875 -1.835938 6.140625 -2.054688 6.359375 -2.328125 L 7.484375 -1.109375 C 7.203125 -0.765625 6.804688 -0.460938 6.296875 -0.203125 C 5.796875 0.046875 5.160156 0.171875 4.390625 0.171875 Z M 4.21875 -5.90625 C 3.769531 -5.90625 3.410156 -5.765625 3.140625 -5.484375 C 2.878906 -5.210938 2.75 -4.84375 2.75 -4.375 L 2.75 -4.265625 L 5.65625 -4.265625 L 5.65625 -4.375 C 5.65625 -4.851562 5.523438 -5.226562 5.265625 -5.5 C 5.015625 -5.769531 4.664062 -5.90625 4.21875 -5.90625 Z M 4.21875 -5.90625 "/></g></g><g style="fill:#001020;fill-opacity:1;"><g transform="translate(655.91578, 305.412974)"><path style="stroke:none" d="M 4.203125 0.171875 C 3.640625 0.171875 3.132812 0.0859375 2.6875 -0.078125 C 2.238281 -0.253906 1.859375 -0.503906 1.546875 -0.828125 C 1.234375 -1.160156 0.992188 -1.5625 0.828125 -2.03125 C 0.660156 -2.5 0.578125 -3.023438 0.578125 -3.609375 C 0.578125 -4.191406 0.660156 -4.71875 0.828125 -5.1875 C 0.992188 -5.65625 1.234375 -6.050781 1.546875 -6.375 C 1.859375 -6.695312 2.238281 -6.945312 2.6875 -7.125 C 3.132812 -7.300781 3.640625 -7.390625 4.203125 -7.390625 C 4.753906 -7.390625 5.253906 -7.300781 5.703125 -7.125 C 6.148438 -6.945312 6.53125 -6.695312 6.84375 -6.375 C 7.15625 -6.050781 7.394531 -5.65625 7.5625 -5.1875 C 7.726562 -4.71875 7.8125 -4.191406 7.8125 -3.609375 C 7.8125 -3.023438 7.726562 -2.5 7.5625 -2.03125 C 7.394531 -1.5625 7.15625 -1.160156 6.84375 -0.828125 C 6.53125 -0.503906 6.148438 -0.253906 5.703125 -0.078125 C 5.253906 0.0859375 4.753906 0.171875 4.203125 0.171875 Z M 4.203125 -1.375 C 4.660156 -1.375 5.019531 -1.515625 5.28125 -1.796875 C 5.539062 -2.085938 5.671875 -2.5 5.671875 -3.03125 L 5.671875 -4.1875 C 5.671875 -4.71875 5.539062 -5.125 5.28125 -5.40625 C 5.019531 -5.695312 4.660156 -5.84375 4.203125 -5.84375 C 3.734375 -5.84375 3.367188 -5.695312 3.109375 -5.40625 C 2.847656 -5.125 2.71875 -4.71875 2.71875 -4.1875 L 2.71875 -3.03125 C 2.71875 -2.5 2.847656 -2.085938 3.109375 -1.796875 C 3.367188 -1.515625 3.734375 -1.375 4.203125 -1.375 Z M 4.203125 -1.375 "/></g></g><g style="fill:#001020;fill-opacity:1;"><g transform="translate(664.308197, 305.412974)"><path style="stroke:none" d=""/></g></g><g style="fill:#001020;fill-opacity:1;"><g transform="translate(672.700615, 305.412974)"><path style="stroke:none" d="M 1.015625 1.9375 L 5.515625 -10.625 L 7.375 -10.625 L 2.875 1.9375 Z M 1.015625 1.9375 "/></g></g><g style="fill:#001020;fill-opacity:1;"><g transform="translate(681.093033, 305.412974)"><path style="stroke:none" d="M 1.1875 -2.015625 L 5.34375 -4.203125 L 5.34375 -4.328125 L 1.1875 -6.515625 L 1.1875 -8.453125 L 7.203125 -5.234375 L 7.203125 -3.296875 L 1.1875 -0.078125 Z M 1.1875 -2.015625 "/></g></g><path style="fill:none;stroke-width:4;stroke-linecap:butt;stroke-linejoin:miter;stroke:#001020;stroke-opacity:1;stroke-miterlimit:4;" d="M 406.968189 28.61329 L 8.804643 28.61329 C 5.048137 28.61329 2.00021 25.565362 2.00021 21.808856 L 2.00021 14.999213 " transform="matrix(0.749741,0,0,0.749741,275.558954,50.484944)"/><path style="fill-rule:nonzero;fill:#001020;fill-opacity:1;stroke-width:4;stroke-linecap:round;stroke-linejoin:round;stroke:#001020;stroke-opacity:1;stroke-miterlimit:4;" d="M 2.00021 1.999932 C 5.313854 1.999932 8.002283 4.688361 8.002283 8.002005 C 8.002283 11.315649 5.313854 13.998868 2.00021 13.998868 C -1.313435 13.998868 -4.001863 11.315649 -4.001863 8.002005 C -4.001863 4.688361 -1.313435 1.999932 2.00021 1.999932 " transform="matrix(0.749741,0,0,0.749741,275.558954,50.484944)"/><path style="fill:none;stroke-width:4;stroke-linecap:butt;stroke-linejoin:miter;stroke:#001020;stroke-opacity:1;stroke-miterlimit:4;" d="M 559.820112 28.381022 L 8.689351 28.381022 C 6.918499 28.381022 5.215357 27.679412 3.960135 26.423901 C 2.704914 25.168389 2.001781 23.46448 2.001781 21.691993 L 2.001781 14.997689 " transform="matrix(0.749992,0,0,0.740485,181.018211,279.921781)"/><path style="fill-rule:nonzero;fill:#001020;fill-opacity:1;stroke-width:4;stroke-linecap:round;stroke-linejoin:round;stroke:#001020;stroke-opacity:1;stroke-miterlimit:4;" d="M 2.001781 1.999451 C 5.314316 1.999451 8.001844 4.684557 8.001844 7.99742 C 8.001844 11.315558 5.314316 14.000665 2.001781 14.000665 C -1.315962 14.000665 -3.998281 11.315558 -3.998281 7.99742 C -3.998281 4.684557 -1.315962 1.999451 2.001781 1.999451 " transform="matrix(0.749992,0,0,0.740485,181.018211,279.921781)"/></g></svg>